<svg class="_9v2o" version="1.1" xmlns="http://www.w3.org/2000/svg" x="0" y="0" width="41px" height="41px" viewBox="0 0 41 41" style="enable-background:new 0 0 41 41;"><circle fill="#FAC13F" cx="20.4" cy="20.4" r="20.4"/><path fill="#9E501D" d="M27.7,26.9c0,3.8-3.1,7-7,7s-7-3.1-7-7H27.7z"/><path fill="#E2444B" d="M18.2,15.8c0-2.3-1.8-4.1-4.1-4.1c-1.5,0-2.9,0.9-3.6,2.1c-0.7-1.3-2-2.1-3.6-2.1c-2.3,0-4.1,1.8-4.1,4.1 c0,1.1,0.4,2.1,1.1,2.8l0,0l6.5,6.5l6.5-6.4l0,0C17.7,18,18.2,17,18.2,15.8z"/><path fill="#E2444B" d="M38.6,15.8c0-2.3-1.8-4.1-4.1-4.1c-1.5,0-2.9,0.9-3.6,2.1c-0.7-1.3-2-2.1-3.6-2.1c-2.3,0-4.1,1.8-4.1,4.1 c0,1.1,0.4,2.1,1.1,2.8l0,0l6.5,6.5l6.5-6.4l0,0C38.1,18,38.6,17,38.6,15.8z"/></svg>